<svg height="512" viewBox="0 0 64 64" width="512" xmlns="http://www.w3.org/2000/svg"><g id="biology-eco-ecology-world-sicence"><path d="m22 14.745v-6.745a3 3 0 0 0 0-6h-10a3 3 0 0 0 0 6v6.745l-10.265 18.818a3 3 0 0 0 2.634 4.437h25.262a3 3 0 0 0 2.634-4.437zm-11-9.745a1 1 0 0 1 1-1h10a1 1 0 0 1 0 2h-10a1 1 0 0 1 -1-1zm2.878 10.479a1 1 0 0 0 .122-.479v-7h6v7a1 1 0 0 0 .122.479l3.968 7.274a4.519 4.519 0 0 0 -2.57-.753 5.388 5.388 0 0 0 -4.271 2.34c-.816.928-1.461 1.66-2.769 1.66-1.241 0-1.827-.6-2.757-1.657a8.277 8.277 0 0 0 -1.788-1.636zm16.612 20.032a.981.981 0 0 1 -.859.489h-25.262a1 1 0 0 1 -.878-1.479l5.485-10.055a6.981 6.981 0 0 1 1.245 1.2 5.374 5.374 0 0 0 4.259 2.334 5.388 5.388 0 0 0 4.271-2.34c.816-.928 1.461-1.66 2.769-1.66 1.24 0 1.826.6 2.754 1.655a6.76 6.76 0 0 0 2.474 1.972l3.761 6.894a.983.983 0 0 1 -.019.99z"/><path d="m21 29h2v2h-2z"/><path d="m15 30h2v2h-2z"/><path d="m25 32h2v2h-2z"/><path d="m7 32h2v2h-2z"/><path d="m59 44h-.99l.98-5.83a1.024 1.024 0 0 0 -.23-.82 1.011 1.011 0 0 0 -.76-.35h-9v-5.86a4.929 4.929 0 0 0 2.6.67h.15a8.684 8.684 0 0 0 4.7-1.66c3.11-2.18 3.05-7.33 3.05-7.55a1.011 1.011 0 0 0 -.64-.92 14.3 14.3 0 0 0 -2.73-.67 3.371 3.371 0 0 0 .32-.19c3.11-2.18 3.05-7.34 3.05-7.56a1.008 1.008 0 0 0 -.64-.91 11.782 11.782 0 0 0 -6.32-.54 9.746 9.746 0 0 0 .46-2.98c0-3.8-4.26-6.71-4.44-6.83a1.033 1.033 0 0 0 -1.12 0c-.18.12-4.44 3.03-4.44 6.83a9.746 9.746 0 0 0 .46 2.98 11.782 11.782 0 0 0 -6.32.54 1.008 1.008 0 0 0 -.64.91c0 .22-.06 5.38 3.05 7.56a3.371 3.371 0 0 0 .32.19 14.3 14.3 0 0 0 -2.73.67 1.011 1.011 0 0 0 -.64.92c0 .22-.06 5.37 3.05 7.55a8.684 8.684 0 0 0 4.7 1.66h.15a4.929 4.929 0 0 0 2.6-.67v5.86h-9a1.011 1.011 0 0 0 -.76.35 1.024 1.024 0 0 0 -.23.82l.98 5.83h-.99a3.009 3.009 0 0 0 -3 3v12a3.009 3.009 0 0 0 3 3h22a3.009 3.009 0 0 0 3-3v-12a3.009 3.009 0 0 0 -3-3zm-1.53-20.66c-.09 1.28-.48 3.99-2.17 5.18a6.784 6.784 0 0 1 -3.59 1.29 2.6 2.6 0 0 1 -2.22-.88 2.6 2.6 0 0 1 -.07-2.39 6.694 6.694 0 0 1 2.44-2.94 4.648 4.648 0 0 1 2.69-.71 10.793 10.793 0 0 1 2.92.45zm-8.47.17v-1.7a4.334 4.334 0 0 0 1.27.51 9.605 9.605 0 0 0 -1.27 1.19zm2.86-9.24c1.69-1.18 4.37-.62 5.61-.27-.09 1.29-.48 4-2.17 5.18a6.717 6.717 0 0 1 -3.59 1.3 2.6 2.6 0 0 1 -2.22-.89c-.94-1.33.15-3.77 2.37-5.32zm-3.86-10.18c1 .81 3 2.68 3 4.74 0 2.71-1.37 5-3 5s-3-2.29-3-5c0-2.06 2-3.93 3-4.74zm-9.47 9.91c1.44-.42 4.03-.84 5.61.27 2.22 1.55 3.31 3.99 2.37 5.32a2.626 2.626 0 0 1 -2.22.89 6.717 6.717 0 0 1 -3.59-1.3c-1.69-1.18-2.08-3.9-2.17-5.18zm7.98 14.93a2.6 2.6 0 0 1 -2.22.88 6.784 6.784 0 0 1 -3.59-1.29c-1.69-1.19-2.08-3.9-2.17-5.18 1.24-.36 3.92-.92 5.61.26a6.694 6.694 0 0 1 2.44 2.94 2.6 2.6 0 0 1 -.07 2.39zm-.78-6.61a4.334 4.334 0 0 0 1.27-.51v1.7a9.605 9.605 0 0 0 -1.27-1.19zm11.09 16.68-.84 5h-15.96l-.84-5zm3.18 20a1 1 0 0 1 -1 1h-22a1 1 0 0 1 -1-1v-12a1 1 0 0 1 1-1h22a1 1 0 0 1 1 1z"/><path d="m42 48h16v2h-16z"/><path d="m42 52h16v2h-16z"/><path d="m42 56h16v2h-16z"/><path d="m38 48h2v2h-2z"/><path d="m38 52h2v2h-2z"/><path d="m38 56h2v2h-2z"/><path d="m17 52v-12h-2v12a5.006 5.006 0 0 0 5 5h8v-2h-8a3 3 0 0 1 -3-3z"/><path d="m30 55h2v2h-2z"/></g></svg>