<?xml version="1.0" encoding="iso-8859-1"?>
<!-- Generator: Adobe Illustrator 19.0.0, SVG Export Plug-In . SVG Version: 6.00 Build 0)  -->
<svg version="1.1" id="Capa_1" xmlns="http://www.w3.org/2000/svg" xmlns:xlink="http://www.w3.org/1999/xlink" x="0px" y="0px"
	 viewBox="0 0 512 512" style="enable-background:new 0 0 512 512;" xml:space="preserve">
<g>
	<g>
		<path d="M465.067,0H200.533c-28.237,0-51.2,22.963-51.2,51.2v51.2H89.6c-28.237,0-51.2,22.963-51.2,51.2v315.733
			C38.4,492.86,57.54,512,81.067,512h281.6c4.71,0,8.533-3.823,8.533-8.533v-30.601l25.6-25.6l28.1,28.1
			c1.63,1.63,3.814,2.5,6.033,2.5c1.101,0,2.21-0.213,3.268-0.649c3.183-1.323,5.265-4.437,5.265-7.885V409.6h25.6
			c4.71,0,8.533-3.823,8.533-8.533V332.8V8.533C473.6,3.823,469.777,0,465.067,0z M166.4,51.2c0-18.825,15.309-34.133,34.133-34.133
			h8.533v307.2H192c-9.643,0-18.449,3.337-25.6,8.755V51.2z M55.467,153.6c0-18.825,15.309-34.133,34.133-34.133h8.533v307.2H81.067
			c-9.643,0-18.449,3.337-25.6,8.755V153.6z M354.133,469.333v25.6H81.067c-14.114,0-25.6-11.486-25.6-25.6s11.486-25.6,25.6-25.6
			h273.067V469.333z M354.133,426.667H115.2v-307.2h34.133v247.467c0,23.526,19.14,42.667,42.667,42.667h162.133V426.667z
			 M422.4,448.734l-19.567-19.567c-1.664-1.664-3.849-2.5-6.033-2.5c-2.185,0-4.369,0.836-6.033,2.5L371.2,448.734V435.2v-34.133
			v-25.6h51.2V448.734z M456.533,392.533h-17.067v-25.6c0-4.71-3.823-8.533-8.533-8.533h-68.267c-4.71,0-8.533,3.823-8.533,8.533
			v25.6H192c-14.114,0-25.6-11.486-25.6-25.6s11.486-25.6,25.6-25.6h264.533V392.533z M456.533,324.267h-230.4v-307.2h230.4V324.267
			z"/>
	</g>
</g>
<g>
	<g>
		<path d="M430.933,34.133h-179.2c-4.71,0-8.533,3.823-8.533,8.533v102.4c0,4.71,3.823,8.533,8.533,8.533h179.2
			c4.71,0,8.533-3.823,8.533-8.533v-102.4C439.467,37.956,435.644,34.133,430.933,34.133z M422.4,136.533H260.267V51.2H422.4
			V136.533z"/>
	</g>
</g>
<g>
	<g>
		<rect x="277.333" y="179.2" width="128" height="17.067"/>
	</g>
</g>
<g>
	<g>
		<rect x="277.333" y="213.333" width="128" height="17.067"/>
	</g>
</g>
<g>
	<g>
		<rect x="362.667" y="290.133" width="42.667" height="17.067"/>
	</g>
</g>
<g>
</g>
<g>
</g>
<g>
</g>
<g>
</g>
<g>
</g>
<g>
</g>
<g>
</g>
<g>
</g>
<g>
</g>
<g>
</g>
<g>
</g>
<g>
</g>
<g>
</g>
<g>
</g>
<g>
</g>
</svg>
