<svg id="Capa_1" enable-background="new 0 0 512 512" height="512" viewBox="0 0 512 512" width="512" xmlns="http://www.w3.org/2000/svg"><g><path d="m512 256c0 141.385-114.615 256-256 256s-256-114.615-256-256 114.615-256 256-256 256 114.615 256 256z" fill="#40c1fa"/><path d="m512 256c0 141.385-114.615 256-256 256s-256-114.615-256-256c0-2.005.023-4.005.069-6h511.862c.046 1.995.069 3.995.069 6z" fill="#07a9f0"/><path d="m410 165h-250c-13.785 0-25 11.215-25 25v200c0 13.785 11.215 25 25 25h250c13.785 0 25-11.215 25-25v-200c0-13.785-11.215-25-25-25zm15 225c0 8.271-6.729 15-15 15h-250c-8.271 0-15-6.729-15-15v-200c0-8.271 6.729-15 15-15h250c8.271 0 15 6.729 15 15z" fill="#b4e7fd"/><path d="m212.421 426h-12.421c-11.046 0-20-8.954-20-20v-50c0-11.046 8.954-20 20-20h12.421c11.046 0 20 8.954 20 20v50c0 11.046-8.954 20-20 20z" fill="#453d83"/><path d="m492 426h-12.421c-11.046 0-20-8.954-20-20v-50c0-11.046 8.954-20 20-20h12.421c11.046 0 20 8.954 20 20v50c0 11.046-8.954 20-20 20z" fill="#d1462a"/><path d="m485.79 321v120c0 8.284-6.716 15-15 15h-121.282c-2.222 0-4.024-1.802-4.024-4.024v-142.442c0-1.952 1.582-3.534 3.534-3.534h121.772c8.284 0 15 6.716 15 15z" fill="#ea552d"/><path d="m485.79 321v49c0 8.284-6.716 15-15 15h-125.306v-74.732c0-2.357 1.911-4.268 4.268-4.268h121.038c8.284 0 15 6.716 15 15z" fill="#f77026"/><path d="m350.01 306v150h-125.305c-8.284 0-15-6.716-15-15v-120c0-8.284 6.716-15 15-15z" fill="#5f55af"/><path d="m350.01 306v79h-85.01c-8.284 0-15-6.716-15-15v-49c0-8.284 6.716-15 15-15z" fill="#6a61b4"/><path d="m155.75 340.119v22.438c0 8.284-6.716 15-15 15h-1.463c-8.284 0-15-6.716-15-15v-22.438c0-8.285 6.716-15 15-15h1.463c8.284 0 15 6.716 15 15z" fill="#453d83"/><path d="m176.281 312.062-7.708 36.582c-.975 4.626-5.057 7.938-9.785 7.938h-35.441c-4.728 0-8.81-3.312-9.785-7.938l-7.708-36.582c-1.31-6.216 3.433-12.062 9.785-12.062h50.858c6.351 0 11.094 5.846 9.784 12.062z" fill="#5f55af"/><path d="m282.133 141.067c0 47.761-23.736 89.979-60.055 115.5-15.991 11.237-28.439 26.811-36.395 44.662l-.337.756c-2.291 5.141-7.393 8.452-13.021 8.452h-62.518c-5.628 0-10.73-3.311-13.021-8.452l-.74-1.661c-7.915-17.758-20.639-32.866-36.497-44.113-36.033-25.558-59.549-67.604-59.549-115.143-.001-77.976 62.873-140.95 140.848-141.068 78.01-.118 141.285 63.085 141.285 141.067z" fill="#ffb52d"/><path d="m282.133 141.067c0 39.653-16.361 75.484-42.7 101.113-17.988 8.341-38.045 13.006-59.215 13.039-78.009.118-141.285-63.085-141.285-141.066 0-39.653 16.361-75.484 42.7-101.113 17.988-8.342 38.045-13.008 59.215-13.04 78.01-.118 141.285 63.085 141.285 141.067z" fill="#ffc14f"/><path d="m214.184 54.769c23.139 23.139 40.475 43.318 29.693 54.099-10.781 10.781-38.279.764-61.417-22.375s-33.156-50.636-22.375-61.417c10.781-10.782 30.96 6.554 54.099 29.693z" fill="#ffcd71"/><path d="m185.4 175.766h-90.332v-10h90.332z" fill="#ffcd71"/><path d="m150.759 175.766h-21.483c-2.756 0-4.99-2.234-4.99-4.99v-.02c0-2.756 2.234-4.99 4.99-4.99h21.483c2.756 0 4.99 2.234 4.99 4.99v.02c.001 2.756-2.234 4.99-4.99 4.99z" fill="#ffd993"/><path d="m110 170c0 11.046-8.954 20-20 20s-20-8.954-20-20 8.954-20 20-20 20 8.954 20 20zm80-20c-11.046 0-20 8.954-20 20s8.954 20 20 20 20-8.954 20-20-8.954-20-20-20z" fill="#ffe1aa"/><path d="m134.786 250v60.436h-10v-57.991l-36.641-28.499c-1.218-.947-1.93-2.403-1.93-3.946v-50c0-2.762 2.239-5 5-5s5 2.238 5 5v47.555l36.641 28.499c1.218.947 1.93 2.403 1.93 3.946zm55-85c-2.761 0-5 2.238-5 5v47.555l-36.641 28.499c-1.218.947-1.93 2.403-1.93 3.946v60.436h10v-57.991l36.641-28.499c1.218-.947 1.93-2.403 1.93-3.946v-50c0-2.762-2.239-5-5-5z" fill="#ff9100"/><path d="m178.925 318.383h-75.062c-2.756 0-4.99-2.234-4.99-4.99v-.02c0-2.756 2.234-4.99 4.99-4.99h75.062c2.756 0 4.99 2.234 4.99 4.99v.02c0 2.756-2.234 4.99-4.99 4.99z" fill="#453d83"/><path d="m440 381c0 2.761-2.239 5-5 5h-19v19c0 2.761-2.239 5-5 5s-5-2.239-5-5v-19h-19c-2.761 0-5-2.239-5-5s2.239-5 5-5h19v-19c0-2.761 2.239-5 5-5s5 2.239 5 5v19h19c2.761 0 5 2.239 5 5zm-137-5h-48c-2.761 0-5 2.239-5 5s2.239 5 5 5h48c2.761 0 5-2.239 5-5s-2.239-5-5-5zm147.031-163.555c0-1.279.488-2.56 1.464-3.535l17.678-17.678c1.953-1.953 5.119-1.953 7.071 0l17.678 17.678c1.952 1.951 1.952 5.119 0 7.07-1.953 1.953-5.119 1.953-7.071 0l-9.142-9.142v78.394c0 2.762-2.239 5-5 5s-5-2.238-5-5v-78.394l-9.142 9.142c-1.953 1.953-5.119 1.953-7.071 0-.977-.975-1.465-2.255-1.465-3.535zm-137.171 22.104c-1.279 0-2.56-.488-3.535-1.464l-17.678-17.678c-1.953-1.953-1.953-5.119 0-7.071l17.678-17.678c1.951-1.952 5.119-1.952 7.07 0 1.953 1.953 1.953 5.119 0 7.071l-9.142 9.142h78.394c2.762 0 5 2.239 5 5s-2.238 5-5 5h-78.394l9.142 9.142c1.953 1.953 1.953 5.119 0 7.071-.976.977-2.256 1.465-3.535 1.465z" fill="#fff5f5"/></g></svg>